<svg width="14" height="13"  viewBox="0 0 14 13" fill="none" xmlns="http://www.w3.org/2000/svg">
<path className="text-primary" d="M5.49219 1.00781C5.6276 1.00781 5.74479 1.05729 5.84375 1.15625C5.94271 1.25521 5.99219 1.3724 5.99219 1.50781C5.99219 1.64323 5.94271 1.76042 5.84375 1.85938C5.74479 1.95833 5.6276 2.00781 5.49219 2.00781H1.5C1.36458 2.00781 1.2474 2.05729 1.14844 2.15625C1.04948 2.25521 1 2.3724 1 2.50781V11.5C1 11.6354 1.04948 11.7526 1.14844 11.8516C1.2474 11.9505 1.36458 12 1.5 12H10.4922C10.6276 12 10.7448 11.9505 10.8438 11.8516C10.9427 11.7526 10.9922 11.6354 10.9922 11.5V7.50781C10.9922 7.3724 11.0417 7.25521 11.1406 7.15625C11.2396 7.05729 11.3568 7.00781 11.4922 7.00781C11.6276 7.00781 11.7448 7.05729 11.8438 7.15625C11.9427 7.25521 11.9922 7.3724 11.9922 7.50781V11.5C11.9922 11.7031 11.9505 11.8958 11.8672 12.0781C11.7891 12.2552 11.6797 12.4141 11.5391 12.5547C11.4036 12.6901 11.2448 12.7995 11.0625 12.8828C10.8854 12.9609 10.6953 13 10.4922 13H1.5C1.30208 13 1.11198 12.9609 0.929688 12.8828C0.747396 12.7995 0.585938 12.6901 0.445312 12.5547C0.309896 12.4141 0.200521 12.2526 0.117188 12.0703C0.0390625 11.888 0 11.6979 0 11.5V2.50781C0 2.30469 0.0390625 2.11458 0.117188 1.9375C0.200521 1.75521 0.309896 1.59635 0.445312 1.46094C0.585938 1.32031 0.744792 1.21094 0.921875 1.13281C1.10417 1.04948 1.29688 1.00781 1.5 1.00781H5.49219ZM12.9922 0C13.1276 0 13.2448 0.0494792 13.3438 0.148438C13.4427 0.247396 13.4922 0.364583 13.4922 0.5V4C13.4922 4.13542 13.4427 4.2526 13.3438 4.35156C13.2448 4.45052 13.1276 4.5 12.9922 4.5C12.8568 4.5 12.7396 4.45052 12.6406 4.35156C12.5417 4.2526 12.4922 4.13542 12.4922 4V1.69531L7.33594 6.85938C7.23698 6.95833 7.11979 7.00781 6.98438 7.00781C6.84896 7.00781 6.73177 6.95833 6.63281 6.85938C6.53385 6.76042 6.48438 6.64323 6.48438 6.50781C6.48438 6.36719 6.53385 6.2474 6.63281 6.14844L11.7734 1H9.48438C9.34896 1 9.23177 0.950521 9.13281 0.851562C9.03385 0.752604 8.98438 0.635417 8.98438 0.5C8.98438 0.364583 9.03385 0.247396 9.13281 0.148438C9.23177 0.0494792 9.34896 0 9.48438 0H12.9922Z" fill="#9AA6AC"/>
</svg>
