<svg width="15" height="15" viewBox="0 0 15 15" fill="none" xmlns="http://www.w3.org/2000/svg">
<path d="M6.25094 14.9887C6.12603 14.9887 6.00113 14.9263 5.93867 14.9263C5.75131 14.8014 5.62641 14.5516 5.62641 14.3642V8.93079L0.130538 0.999249C0.00563139 0.81189 -0.0568217 0.562078 0.0680845 0.312265C0.192991 0.124906 0.38035 0 0.630162 0H14.3698C14.6197 0 14.807 0.124906 14.9319 0.312265C15.0568 0.499625 14.9944 0.749437 14.8695 0.936796L9.37359 8.93079V13.1151C9.37359 13.365 9.24869 13.5523 8.99887 13.6772L6.50075 14.9263C6.4383 14.9887 6.37584 14.9887 6.25094 14.9887ZM1.81677 1.24906L6.75056 8.36871C6.81302 8.49362 6.87547 8.61852 6.87547 8.74343V13.365L8.12453 12.7404V8.74343C8.12453 8.61852 8.18698 8.49362 8.24944 8.36871L13.1832 1.24906H1.81677Z" fill="#9AA6AC"/>
</svg>
