<svg width="14" height="15" viewBox="0 0 14 15" fill="none" xmlns="http://www.w3.org/2000/svg">
<path fill-rule="evenodd" clip-rule="evenodd" d="M5.25403 1.87716C4.32506 1.87716 3.43414 2.27255 2.77726 2.97635C2.12038 3.68016 1.75134 4.63472 1.75134 5.63004C1.75134 6.62537 2.12038 7.57993 2.77726 8.28373C3.43414 8.98753 4.32506 9.38293 5.25403 9.38293C6.18301 9.38293 7.07393 8.98753 7.73081 8.28373C8.38769 7.57993 8.75672 6.62537 8.75672 5.63004C8.75672 4.63472 8.38769 3.68016 7.73081 2.97635C7.07393 2.27255 6.18301 1.87716 5.25403 1.87716ZM9.93551e-08 5.63004C-0.000105422 4.74408 0.194962 3.87061 0.569337 3.08065C0.943712 2.2907 1.48682 1.60658 2.1545 1.08392C2.82218 0.561262 3.59557 0.214832 4.41177 0.0728053C5.22797 -0.0692217 6.06393 -0.00283576 6.85167 0.266564C7.63941 0.535964 8.35668 1.00077 8.94514 1.62318C9.5336 2.24559 9.97665 3.00803 10.2382 3.84849C10.4998 4.68894 10.5726 5.58369 10.4506 6.45995C10.3285 7.33621 10.0152 8.16924 9.53607 8.8913L13.7542 13.4107C13.9137 13.5877 14.002 13.8247 14 14.0707C13.998 14.3166 13.9059 14.552 13.7435 14.7259C13.5812 14.8999 13.3615 14.9985 13.1319 15.0007C12.9023 15.0028 12.6811 14.9083 12.516 14.7374L8.29875 10.2189C7.51271 10.8177 6.58799 11.1732 5.62591 11.2463C4.66384 11.3195 3.70153 11.1075 2.84445 10.6335C1.98736 10.1596 1.26857 9.44206 0.766847 8.5595C0.265119 7.67694 -0.000187438 6.66343 9.93551e-08 5.63004Z" fill="#9AA6AC"/>
</svg>
